HIERARCHY
ROOT hip
{
  OFFSET 0 0 0
  CHANNELS 6 Xposition Yposition Zposition Zrotation Yrotation Xrotation
  JOINT abdomen
  {
    OFFSET 0 20.6881 -0.73152
    CHANNELS 3 Zrotation Xrotation Yrotation
    JOINT chest
    {
      OFFSET 0 11.7043 -0.48768
      CHANNELS 3 Zrotation Xrotation Yrotation
      JOINT neck
      {
        OFFSET 0 22.1894 -2.19456
        CHANNELS 3 Zrotation Xrotation Yrotation
        JOINT head
        {
          OFFSET -0.24384 7.07133 1.2192
          CHANNELS 3 Zrotation Xrotation Yrotation
          JOINT leftEye
          {
            OFFSET 4.14528 8.04674 8.04672
            CHANNELS 3 Zrotation Xrotation Yrotation
            End Site
            {
              OFFSET 1 0 0
            }
          }
          JOINT rightEye
          {
            OFFSET -3.6576 8.04674 8.04672
            CHANNELS 3 Zrotation Xrotation Yrotation
            End Site
            {
              OFFSET 1 0 0
            }
          }
        }
      }
      JOINT rCollar
      {
        OFFSET -2.68224 19.2634 -4.8768
        CHANNELS 3 Zrotation Xrotation Yrotation
        JOINT rShldr
        {
          OFFSET -8.77824 -1.95073 1.46304
          CHANNELS 3 Zrotation Xrotation Yrotation
          JOINT rForeArm
          {
            OFFSET -28.1742 -1.7115 0.48768
            CHANNELS 3 Zrotation Xrotation Yrotation
            JOINT rHand
            {
              OFFSET -22.5879 0.773209 7.07136
              CHANNELS 3 Zrotation Xrotation Yrotation
              JOINT rThumb1
              {
                OFFSET -1.2192 -0.487915 3.41376
                CHANNELS 3 Zrotation Xrotation Yrotation
                JOINT rThumb2
                {
                  OFFSET -3.37035 -0.52449 3.41376
                  CHANNELS 3 Zrotation Xrotation Yrotation
                  End Site
                  {
                    OFFSET -1.78271 -1.18214 1.43049
                  }
                }
              }
              JOINT rIndex1
              {
                OFFSET -7.75947 0.938293 5.60832
                CHANNELS 3 Zrotation Xrotation Yrotation
                JOINT rIndex2
                {
                  OFFSET -2.54057 -0.884171 1.56538
                  CHANNELS 3 Zrotation Xrotation Yrotation
                  End Site
                  {
                    OFFSET -1.62519 -0.234802 1.16502
                  }
                }
              }
              JOINT rMid1
              {
                OFFSET -8.24714 1.18213 3.41376
                CHANNELS 3 Zrotation Xrotation Yrotation
                JOINT rMid2
                {
                  OFFSET -3.10165 -0.590103 1.0647
                  CHANNELS 3 Zrotation Xrotation Yrotation
                  End Site
                  {
                    OFFSET -2.48547 -0.328903 0.83742
                  }
                }
              }
              JOINT rRing1
              {
                OFFSET -8.82822 0.546677 1.51678
                CHANNELS 3 Zrotation Xrotation Yrotation
                JOINT rRing2
                {
                  OFFSET -2.60934 -0.819778 -0.0198488
                  CHANNELS 3 Zrotation Xrotation Yrotation
                  End Site
                  {
                    OFFSET -2.33842 -0.294052 0.168128
                  }
                }
              }
              JOINT rPinky1
              {
                OFFSET -8.27202 -0.0477905 -0.4584
                CHANNELS 3 Zrotation Xrotation Yrotation
                JOINT rPinky2
                {
                  OFFSET -1.82734 -0.647385 -0.700984
                  CHANNELS 3 Zrotation Xrotation Yrotation
                  End Site
                  {
                    OFFSET -1.69225 -0.51767 -0.607171
                  }
                }
              }
            }
          }
        }
      }
      JOINT lCollar
      {
        OFFSET 2.68224 19.2634 -4.8768
        CHANNELS 3 Zrotation Xrotation Yrotation
        JOINT lShldr
        {
          OFFSET 8.77824 -1.95073 1.46304
          CHANNELS 3 Zrotation Xrotation Yrotation
          JOINT lForeArm
          {
            OFFSET 28.1742 -1.7115 0.48768
            CHANNELS 3 Zrotation Xrotation Yrotation
            JOINT lHand
            {
              OFFSET 22.5879 0.773209 7.07136
              CHANNELS 3 Zrotation Xrotation Yrotation
              JOINT lThumb1
              {
                OFFSET 1.2192 -0.487915 3.41376
                CHANNELS 3 Zrotation Xrotation Yrotation
                JOINT lThumb2
                {
                  OFFSET 3.37035 -0.52449 3.41376
                  CHANNELS 3 Zrotation Xrotation Yrotation
                  End Site
                  {
                    OFFSET 1.78271 -1.18214 1.43049
                  }
                }
              }
              JOINT lIndex1
              {
                OFFSET 7.75947 0.938293 5.60832
                CHANNELS 3 Zrotation Xrotation Yrotation
                JOINT lIndex2
                {
                  OFFSET 2.54057 -0.884171 1.56538
                  CHANNELS 3 Zrotation Xrotation Yrotation
                  End Site
                  {
                    OFFSET 1.62519 -0.234802 1.16502
                  }
                }
              }
              JOINT lMid1
              {
                OFFSET 8.24714 1.18213 3.41376
                CHANNELS 3 Zrotation Xrotation Yrotation
                JOINT lMid2
                {
                  OFFSET 3.10165 -0.590103 1.0647
                  CHANNELS 3 Zrotation Xrotation Yrotation
                  End Site
                  {
                    OFFSET 2.48547 -0.328903 0.83742
                  }
                }
              }
              JOINT lRing1
              {
                OFFSET 8.82822 0.546677 1.51678
                CHANNELS 3 Zrotation Xrotation Yrotation
                JOINT lRing2
                {
                  OFFSET 2.60934 -0.819778 -0.0198488
                  CHANNELS 3 Zrotation Xrotation Yrotation
                  End Site
                  {
                    OFFSET 2.33842 -0.294052 0.168128
                  }
                }
              }
              JOINT lPinky1
              {
                OFFSET 8.27202 -0.0477905 -0.4584
                CHANNELS 3 Zrotation Xrotation Yrotation
                JOINT lPinky2
                {
                  OFFSET 1.82734 -0.647385 -0.700984
                  CHANNELS 3 Zrotation Xrotation Yrotation
                  End Site
                  {
                    OFFSET 1.69225 -0.51767 -0.607171
                  }
                }
              }
            }
          }
        }
      }
    }
  }
  JOINT rButtock
  {
    OFFSET -8.77824 4.35084 1.2192
    CHANNELS 3 Zrotation Xrotation Yrotation
    JOINT rThigh
    {
      OFFSET 0 -1.70687 -2.19456
      CHANNELS 3 Zrotation Xrotation Yrotation
      JOINT rShin
      {
        OFFSET 0 -36.8199 0.73152
        CHANNELS 3 Zrotation Xrotation Yrotation
        JOINT rFoot
        {
          OFFSET 0.73152 -45.1104 -5.12064
          CHANNELS 3 Zrotation Xrotation Yrotation
          End Site
          {
            OFFSET -1.1221 -3.69964 12.103
          }
        }
      }
    }
  }
  JOINT lButtock
  {
    OFFSET 8.77824 4.35084 1.2192
    CHANNELS 3 Zrotation Xrotation Yrotation
    JOINT lThigh
    {
      OFFSET 0 -1.70687 -2.19456
      CHANNELS 3 Zrotation Xrotation Yrotation
      JOINT lShin
      {
        OFFSET 0 -36.8199 0.73152
        CHANNELS 3 Zrotation Xrotation Yrotation
        JOINT lFoot
        {
          OFFSET -0.73152 -45.1104 -5.12064
          CHANNELS 3 Zrotation Xrotation Yrotation
          End Site
          {
            OFFSET 1.1221 -3.69964 12.103
          }
        }
      }
    }
  }
}
MOTION
Frames:	5
Frame Time:	0.03333
0.6147999964014161 47.29219973087311 -27.460300154052675 -167.18096923828125 79.53527069091797 -159.21400451660156 -3.23392915725708 12.984505653381348 16.69730567932129 -5.018063068389893 -12.361202239990234 3.9879496097564697 1.2420775890350342 14.941802978515625 12.48758602142334 -1.0524319410324097 -19.33659553527832 24.480403900146484 -0.0 0.0 -0.0 -0.0 0.0 -0.0 -0.0 0.0 -0.0 5.8646650314331055 64.58230590820312 62.0684928894043 -26.332693099975586 -45.5994987487793 94.7024917602539 -0.13735684752464294 9.958789825439453 1.4152826070785522 -0.0 0.0 -0.0 -0.0 0.0 -0.0 -0.0 0.0 -0.0 7.73087739944458 5.47489595413208 0.41732463240623474 -0.0 0.0 -0.0 2.9054994583129883 0.9650753736495972 0.10300876200199127 -0.0 0.0 -0.0 10.278595924377441 0.7317469120025635 0.026285577565431595 -0.0 0.0 -0.0 2.221662759780884 -0.7335850596427917 -0.20831839740276337 -0.0 0.0 -0.0 -54.34859085083008 -1.0137497186660767 -15.886004447937012 26.958303451538086 -44.126792907714844 -91.69548797607422 2.5167622566223145 -40.315673828125 6.8488593101501465 -0.0 0.0 -0.0 -0.0 0.0 -0.0 -0.0 0.0 -0.0 -7.73087739944458 5.47489595413208 -0.41732463240623474 -0.0 0.0 -0.0 -2.9054994583129883 0.9650753736495972 -0.10300876200199127 -0.0 0.0 -0.0 -10.278595924377441 0.7317469120025635 -0.026285577565431595 -0.0 0.0 -0.0 -2.221662759780884 -0.7335850596427917 0.20831839740276337 -0.0 0.0 -0.0 -68.27200317382812 -38.8534049987793 -53.09089279174805 -165.38290405273438 86.1988754272461 167.3648223876953 -2.829577684402466 -25.30450439453125 -6.623171329498291 -0.0 0.0 -0.0 83.51529693603516 -53.2205924987793 63.68419647216797 158.48619079589844 87.03917694091797 -159.18931579589844 -6.452075958251953 -24.422006607055664 -8.820962905883789
0.5635999965306837 46.812498569488525 -27.648000151384622 -167.2329864501953 79.45584869384766 -159.16000366210938 -3.265946388244629 13.11176872253418 16.62711524963379 -4.9393181800842285 -12.45129680633545 3.9669992923736572 1.252315878868103 15.00819206237793 12.476892471313477 -1.0931470394134521 -19.615800857543945 24.444494247436523 -0.0 0.0 -0.0 -0.0 0.0 -0.0 -0.0 0.0 -0.0 5.275020599365234 64.39228820800781 62.457096099853516 -26.338504791259766 -45.58729934692383 94.67679595947266 -0.12043393403291702 9.847729682922363 1.3978898525238037 -0.0 0.0 -0.0 -0.0 0.0 -0.0 -0.0 0.0 -0.0 7.73087739944458 5.47489595413208 0.41732463240623474 -0.0 0.0 -0.0 2.9054994583129883 0.9650753736495972 0.10300876200199127 -0.0 0.0 -0.0 10.278595924377441 0.7317469120025635 0.026285577565431595 -0.0 0.0 -0.0 2.221662759780884 -0.7335850596427917 -0.20831839740276337 -0.0 0.0 -0.0 -54.31859588623047 -1.0248335599899292 -15.81360149383545 26.919404983520508 -44.22779846191406 -91.89778900146484 2.599703311920166 -40.834903717041016 6.976444721221924 -0.0 0.0 -0.0 -0.0 0.0 -0.0 -0.0 0.0 -0.0 -7.73087739944458 5.47489595413208 -0.41732463240623474 -0.0 0.0 -0.0 -2.9054994583129883 0.9650753736495972 -0.10300876200199127 -0.0 0.0 -0.0 -10.278595924377441 0.7317469120025635 -0.026285577565431595 -0.0 0.0 -0.0 -2.221662759780884 -0.7335850596427917 0.20831839740276337 -0.0 0.0 -0.0 -69.3136978149414 -38.746002197265625 -53.87989807128906 -167.17398071289062 85.64949035644531 169.19190979003906 -2.8104498386383057 -25.3494930267334 -6.600564956665039 -0.0 0.0 -0.0 85.20938873291016 -53.25260925292969 65.32830047607422 163.34478759765625 86.14176177978516 -164.03184509277344 -6.682743072509766 -24.639801025390625 -9.11103343963623
0.5145999959495384 46.35449945926666 -27.807600155938417 -167.3579864501953 79.38347625732422 -159.22598266601562 -3.314521074295044 13.262392044067383 16.619104385375977 -4.924934387207031 -12.49288272857666 3.9588000774383545 1.1658494472503662 15.016188621520996 12.484198570251465 -0.9170759916305542 -19.717008590698242 24.486902236938477 -0.0 0.0 -0.0 -0.0 0.0 -0.0 -0.0 0.0 -0.0 5.13389253616333 64.20429229736328 62.4872932434082 -26.358110427856445 -45.54539108276367 94.58928680419922 -0.11614292114973068 9.672842979431152 1.3725792169570923 -0.0 0.0 -0.0 -0.0 0.0 -0.0 -0.0 0.0 -0.0 7.73087739944458 5.47489595413208 0.41732463240623474 -0.0 0.0 -0.0 2.9054994583129883 0.9650753736495972 0.10300876200199127 -0.0 0.0 -0.0 10.278595924377441 0.7317469120025635 0.026285577565431595 -0.0 0.0 -0.0 2.221662759780884 -0.7335850596427917 -0.20831839740276337 -0.0 0.0 -0.0 -54.2981071472168 -0.9916708469390869 -15.858692169189453 26.902498245239258 -44.271202087402344 -91.98509979248047 2.571232795715332 -40.65800857543945 6.932840347290039 -0.0 0.0 -0.0 -0.0 0.0 -0.0 -0.0 0.0 -0.0 -7.73087739944458 5.47489595413208 -0.41732463240623474 -0.0 0.0 -0.0 -2.9054994583129883 0.9650753736495972 -0.10300876200199127 -0.0 0.0 -0.0 -10.278595924377441 0.7317469120025635 -0.026285577565431595 -0.0 0.0 -0.0 -2.221662759780884 -0.7335850596427917 0.20831839740276337 -0.0 0.0 -0.0 -70.31919860839844 -38.62849426269531 -54.558589935302734 -168.4742431640625 85.1319580078125 170.51736450195312 -2.7083258628845215 -25.4530086517334 -6.424855709075928 -0.0 0.0 -0.0 86.70359802246094 -53.22859573364258 66.78669738769531 166.22129821777344 85.27854919433594 -166.89247131347656 -6.9295220375061035 -24.820098876953125 -9.433362007141113
0.4740999960631598 45.919498801231384 -27.959200157783926 -167.1219940185547 79.3721923828125 -158.88796997070312 -3.3622772693634033 13.391884803771973 16.647199630737305 -4.95047664642334 -12.5167875289917 3.9578349590301514 1.0774530172348022 14.999702453613281 12.491782188415527 -0.7120192646980286 -19.711294174194336 24.537200927734375 -0.0 0.0 -0.0 -0.0 0.0 -0.0 -0.0 0.0 -0.0 5.204057693481445 64.02979278564453 62.3693962097168 -26.387693405151367 -45.481693267822266 94.45639038085938 -0.11412423849105835 9.589164733886719 1.3605486154556274 -0.0 0.0 -0.0 -0.0 0.0 -0.0 -0.0 0.0 -0.0 7.73087739944458 5.47489595413208 0.41732463240623474 -0.0 0.0 -0.0 2.9054994583129883 0.9650753736495972 0.10300876200199127 -0.0 0.0 -0.0 10.278595924377441 0.7317469120025635 0.026285577565431595 -0.0 0.0 -0.0 2.221662759780884 -0.7335850596427917 -0.20831839740276337 -0.0 0.0 -0.0 -54.27669143676758 -0.9312936663627625 -15.981497764587402 26.903499603271484 -44.268898010253906 -91.98009490966797 2.4968698024749756 -40.188602447509766 6.818144798278809 -0.0 0.0 -0.0 -0.0 0.0 -0.0 -0.0 0.0 -0.0 -7.73087739944458 5.47489595413208 -0.41732463240623474 -0.0 0.0 -0.0 -2.9054994583129883 0.9650753736495972 -0.10300876200199127 -0.0 0.0 -0.0 -10.278595924377441 0.7317469120025635 -0.026285577565431595 -0.0 0.0 -0.0 -2.221662759780884 -0.7335850596427917 0.20831839740276337 -0.0 0.0 -0.0 -71.31999969482422 -38.516300201416016 -55.22390365600586 -169.48863220214844 84.62458038330078 171.54962158203125 -2.5369532108306885 -25.566295623779297 -6.130161285400391 -0.0 0.0 -0.0 88.09410095214844 -53.16839599609375 68.15079498291016 168.1168670654297 84.45411682128906 -168.77496337890625 -7.1338090896606445 -24.98679542541504 -9.68274211883545
0.4399999954330269 45.49970030784607 -28.09500015573576 -166.99700927734375 79.361083984375 -158.62496948242188 -3.356765031814575 13.431905746459961 16.7052001953125 -5.026156902313232 -12.541699409484863 3.9622843265533447 1.0809173583984375 14.976701736450195 12.47949504852295 -0.6370021104812622 -19.590688705444336 24.52730369567871 -0.0 0.0 -0.0 -0.0 0.0 -0.0 -0.0 0.0 -0.0 5.400404453277588 63.89640426635742 62.20011901855469 -26.43090057373047 -45.38859939575195 94.26209259033203 -0.12081447243690491 9.862789154052734 1.4001548290252686 -0.0 0.0 -0.0 -0.0 0.0 -0.0 -0.0 0.0 -0.0 7.73087739944458 5.47489595413208 0.41732463240623474 -0.0 0.0 -0.0 2.9054994583129883 0.9650753736495972 0.10300876200199127 -0.0 0.0 -0.0 10.278595924377441 0.7317469120025635 0.026285577565431595 -0.0 0.0 -0.0 2.221662759780884 -0.7335850596427917 -0.20831839740276337 -0.0 0.0 -0.0 -54.248897552490234 -0.8582196831703186 -16.194198608398438 26.932096481323242 -44.195499420166016 -91.83269500732422 2.386197090148926 -39.4688835144043 6.645290374755859 -0.0 0.0 -0.0 -0.0 0.0 -0.0 -0.0 0.0 -0.0 -7.73087739944458 5.47489595413208 -0.41732463240623474 -0.0 0.0 -0.0 -2.9054994583129883 0.9650753736495972 -0.10300876200199127 -0.0 0.0 -0.0 -10.278595924377441 0.7317469120025635 -0.026285577565431595 -0.0 0.0 -0.0 -2.221662759780884 -0.7335850596427917 0.20831839740276337 -0.0 0.0 -0.0 -72.3207015991211 -38.43329620361328 -55.95540237426758 -170.3113250732422 84.1180648803711 172.37625122070312 -2.2533626556396484 -25.656110763549805 -5.65544319152832 -0.0 0.0 -0.0 89.50540161132812 -53.07339096069336 69.52770233154297 169.4697265625 83.6651840209961 -170.12484741210938 -7.231490612030029 -25.168798446655273 -9.745495796203613
